<svg width="25" height="24" viewBox="0 0 25 24" fill="none" xmlns="http://www.w3.org/2000/svg">
<path d="M12.5 22C10.5222 22 8.58879 21.4135 6.9443 20.3147C5.29981 19.2159 4.01809 17.6541 3.26121 15.8268C2.50433 13.9996 2.3063 11.9889 2.69215 10.0491C3.078 8.10929 4.03041 6.32746 5.42894 4.92894C6.82746 3.53041 8.60929 2.578 10.5491 2.19215C12.4889 1.8063 14.4996 2.00433 16.3268 2.76121C18.1541 3.51809 19.7159 4.79981 20.8147 6.4443C21.9135 8.08879 22.5 10.0222 22.5 12C22.5 14.6522 21.4464 17.1957 19.5711 19.0711C17.6957 20.9464 15.1522 22 12.5 22V22ZM12.5 4.14286C10.946 4.14286 9.42691 4.60367 8.13481 5.46703C6.84271 6.33038 5.83564 7.5575 5.24095 8.9932C4.64626 10.4289 4.49066 12.0087 4.79383 13.5329C5.097 15.057 5.84532 16.457 6.94416 17.5558C8.04301 18.6547 9.44301 19.403 10.9672 19.7062C12.4913 20.0093 14.0711 19.8537 15.5068 19.2591C16.9425 18.6644 18.1696 17.6573 19.033 16.3652C19.8963 15.0731 20.3571 13.554 20.3571 12C20.3534 9.91732 19.5244 7.92102 18.0517 6.44834C16.579 4.97565 14.5827 4.14664 12.5 4.14286V4.14286Z" fill="white"/>
<path d="M12.5 17.7143C12.217 17.7106 11.9466 17.5965 11.7465 17.3964C11.5464 17.1962 11.4323 16.9259 11.4286 16.6428V12.3571C11.4286 12.073 11.5415 11.8005 11.7424 11.5995C11.9433 11.3986 12.2159 11.2857 12.5 11.2857C12.7842 11.2857 13.0567 11.3986 13.2576 11.5995C13.4586 11.8005 13.5714 12.073 13.5714 12.3571V16.6428C13.5677 16.9259 13.4537 17.1962 13.2535 17.3964C13.0534 17.5965 12.783 17.7106 12.5 17.7143Z" fill="white"/>
<path d="M12.5 9.85714C13.289 9.85714 13.9286 9.21755 13.9286 8.42857C13.9286 7.63959 13.289 7 12.5 7C11.711 7 11.0714 7.63959 11.0714 8.42857C11.0714 9.21755 11.711 9.85714 12.5 9.85714Z" fill="white"/>
</svg>
