<svg width="16" height="16" viewBox="0 0 16 16" fill="none" xmlns="http://www.w3.org/2000/svg">
<mask id="path-1-inside-1_2_9" fill="white">
<path fill-rule="evenodd" clip-rule="evenodd" d="M12 1H4C2.34315 1 1 2.34315 1 4V12C1 13.6569 2.34315 15 4 15H12C13.6569 15 15 13.6569 15 12V4C15 2.34315 13.6569 1 12 1ZM4 0C1.79086 0 0 1.79086 0 4V12C0 14.2091 1.79086 16 4 16H12C14.2091 16 16 14.2091 16 12V4C16 1.79086 14.2091 0 12 0H4Z"/>
</mask>
<path fill-rule="evenodd" clip-rule="evenodd" d="M12 1H4C2.34315 1 1 2.34315 1 4V12C1 13.6569 2.34315 15 4 15H12C13.6569 15 15 13.6569 15 12V4C15 2.34315 13.6569 1 12 1ZM4 0C1.79086 0 0 1.79086 0 4V12C0 14.2091 1.79086 16 4 16H12C14.2091 16 16 14.2091 16 12V4C16 1.79086 14.2091 0 12 0H4Z" fill="#8C8C8C"/>
<path d="M4 2H12V0H4V2ZM2 4C2 2.89543 2.89543 2 4 2V0C1.79086 0 0 1.79086 0 4H2ZM2 12V4H0V12H2ZM4 14C2.89543 14 2 13.1046 2 12H0C0 14.2091 1.79086 16 4 16V14ZM12 14H4V16H12V14ZM14 12C14 13.1046 13.1046 14 12 14V16C14.2091 16 16 14.2091 16 12H14ZM14 4V12H16V4H14ZM12 2C13.1046 2 14 2.89543 14 4H16C16 1.79086 14.2091 0 12 0V2ZM1 4C1 2.34315 2.34315 1 4 1V-1C1.23858 -1 -1 1.23858 -1 4H1ZM1 12V4H-1V12H1ZM4 15C2.34315 15 1 13.6569 1 12H-1C-1 14.7614 1.23858 17 4 17V15ZM12 15H4V17H12V15ZM15 12C15 13.6569 13.6569 15 12 15V17C14.7614 17 17 14.7614 17 12H15ZM15 4V12H17V4H15ZM12 1C13.6569 1 15 2.34315 15 4H17C17 1.23858 14.7614 -1 12 -1V1ZM4 1H12V-1H4V1Z" fill="#8C8C8C" mask="url(#path-1-inside-1_2_9)"/>
</svg>
